AcariSans-LightItalic.ufo
<glyph name="numbersign" format="2">
  <advance width="1410"/>
  <unicode hex="0023"/>
  <outline>
    <contour>
      <point x="714.752" y="0" type="line"/>
      <point x="916.48" y="460.8" type="line"/>
      <point x="1190.91" y="460.8" type="line"/>
      <point x="1214.46" y="555.008" type="line"/>
      <point x="958.464" y="555.008" type="line"/>
      <point x="1115.14" y="914.432" type="line"/>
      <point x="1380.35" y="914.432" type="line"/>
      <point x="1403.9" y="1012.74" type="line"/>
      <point x="1157.12" y="1012.74" type="line"/>
      <point x="1356.8" y="1468.42" type="line"/>
      <point x="1250.3" y="1468.42" type="line"/>
      <point x="1051.65" y="1019.9" type="line"/>
      <point x="707.584" y="1019.9" type="line"/>
      <point x="907.264" y="1468.42" type="line"/>
      <point x="799.744" y="1468.42" type="line"/>
      <point x="596.992" y="1009.66" type="line"/>
      <point x="320.512" y="1009.66" type="line"/>
      <point x="297.984" y="914.432" type="line"/>
      <point x="555.008" y="914.432" type="line"/>
      <point x="399.36" y="555.008" type="line"/>
      <point x="132.096" y="555.008" type="line"/>
      <point x="108.544" y="454.656" type="line"/>
      <point x="355.328" y="454.656" type="line"/>
      <point x="157.696" y="0" type="line"/>
      <point x="265.216" y="0" type="line"/>
      <point x="460.8" y="447.488" type="line"/>
      <point x="804.864" y="447.488" type="line"/>
      <point x="607.232" y="0" type="line"/>
    </contour>
    <contour>
      <point x="850.944" y="555.008" type="line"/>
      <point x="506.88" y="555.008" type="line"/>
      <point x="663.552" y="914.432" type="line"/>
      <point x="1006.59" y="914.432" type="line"/>
    </contour>
  </outline>
</glyph>
<glyph name="quotesingle" format="2">
  <advance width="628"/>
  <unicode hex="0027"/>
  <outline>
    <contour>
      <point x="501.76" y="1063.94" type="line"/>
      <point x="596.992" y="1476.61" type="line"/>
      <point x="477.184" y="1476.61" type="line"/>
      <point x="381.952" y="1063.94" type="line"/>
    </contour>
  </outline>
</glyph>
<glyph name="four" format="2">
  <advance width="1229"/>
  <unicode hex="0034"/>
  <outline>
    <contour>
      <point x="720.896" y="0" type="line"/>
      <point x="813.056" y="401.408" type="line"/>
      <point x="1042.43" y="401.408" type="line"/>
      <point x="1068.03" y="516.096" type="line"/>
      <point x="838.656" y="516.096" type="line"/>
      <point x="1052.67" y="1446.91" type="line"/>
      <point x="924.672" y="1446.91" type="line"/>
      <point x="28.6721" y="478.208" type="line"/>
      <point x="11.2641" y="401.408" type="line"/>
      <point x="677.888" y="401.408" type="line"/>
      <point x="585.728" y="0" type="line"/>
    </contour>
    <contour>
      <point x="703.488" y="516.096" type="line"/>
      <point x="193.536" y="516.096" type="line"/>
      <point x="869.376" y="1238.02" type="line"/>
    </contour>
  </outline>
</glyph>
<glyph name="semicolon" format="2">
  <advance width="614"/>
  <unicode hex="003B"/>
  <outline>
    <contour>
      <point x="463.648" y="794.624" type="line"/>
      <point x="505.632" y="975.872" type="line"/>
      <point x="323.36" y="975.872" type="line"/>
      <point x="280.352" y="794.624" type="line"/>
    </contour>
    <contour>
      <point x="41.76" y="-231.424" type="line"/>
      <point x="359.2" y="267.264" type="line"/>
      <point x="180" y="267.264" type="line"/>
      <point x="-38.112" y="-231.424" type="line"/>
    </contour>
  </outline>
</glyph>
<glyph name="equal" format="2">
  <advance width="1303"/>
  <unicode hex="003D"/>
  <outline>
    <contour>
      <point x="1032.19" y="798.72" type="line"/>
      <point x="1032.19" y="921.6" type="line"/>
      <point x="270.336" y="921.6" type="line"/>
      <point x="270.336" y="798.72" type="line"/>
    </contour>
    <contour>
      <point x="1032.19" y="453.632" type="line"/>
      <point x="1032.19" y="575.488" type="line"/>
      <point x="270.336" y="575.488" type="line"/>
      <point x="270.336" y="453.632" type="line"/>
    </contour>
  </outline>
</glyph>
<glyph name="at" format="2">
  <advance width="2123"/>
  <unicode hex="0040"/>
  <outline>
    <contour>
      <point x="863.232" y="-357.376" type="curve" smooth="yes"/>
      <point x="969.728" y="-357.376"/>
      <point x="1074.18" y="-339.968"/>
      <point x="1176.58" y="-307.2" type="curve"/>
      <point x="1142.78" y="-176.128" type="line"/>
      <point x="1055.74" y="-203.776"/>
      <point x="964.608" y="-217.088"/>
      <point x="873.472" y="-217.088" type="curve" smooth="yes"/>
      <point x="539.648" y="-217.088"/>
      <point x="270.336" y="-36.864"/>
      <point x="270.336" y="319.488" type="curve" smooth="yes"/>
      <point x="270.336" y="849.92"/>
      <point x="739.328" y="1336.32"/>
      <point x="1273.86" y="1336.32" type="curve" smooth="yes"/>
      <point x="1616.9" y="1336.32"/>
      <point x="1870.85" y="1138.69"/>
      <point x="1870.85" y="781.312" type="curve" smooth="yes"/>
      <point x="1870.85" y="515.072"/>
      <point x="1721.34" y="69.632"/>
      <point x="1402.88" y="69.632" type="curve" smooth="yes"/>
      <point x="1333.25" y="69.632"/>
      <point x="1291.26" y="120.832"/>
      <point x="1291.26" y="207.872" type="curve" smooth="yes"/>
      <point x="1291.26" y="272.384"/>
      <point x="1303.55" y="304.128"/>
      <point x="1347.58" y="398.336" type="curve" smooth="yes"/>
      <point x="1626.11" y="1000.45" type="line"/>
      <point x="1485.82" y="1006.59" type="line"/>
      <point x="1414.14" y="837.632" type="line"/>
      <point x="1414.14" y="982.016"/>
      <point x="1316.86" y="1056.77"/>
      <point x="1178.62" y="1056.77" type="curve" smooth="yes"/>
      <point x="862.208" y="1056.77"/>
      <point x="569.344" y="632.832"/>
      <point x="569.344" y="338.944" type="curve" smooth="yes"/>
      <point x="569.344" y="178.176"/>
      <point x="651.264" y="72.704"/>
      <point x="819.2" y="72.704" type="curve" smooth="yes"/>
      <point x="958.464" y="72.704"/>
      <point x="1091.58" y="146.432"/>
      <point x="1184.77" y="247.808" type="curve"/>
      <point x="1140" y="87"/>
      <point x="1234.94" y="-49.152"/>
      <point x="1392.64" y="-49.152" type="curve" smooth="yes"/>
      <point x="1790.98" y="-49.152"/>
      <point x="2002.94" y="452.608"/>
      <point x="2002.94" y="791.552" type="curve" smooth="yes"/>
      <point x="2002.94" y="1215.49"/>
      <point x="1699.84" y="1466.37"/>
      <point x="1290.24" y="1466.37" type="curve" smooth="yes"/>
      <point x="671.744" y="1466.37"/>
      <point x="137.216" y="925.696"/>
      <point x="137.216" y="304.128" type="curve" smooth="yes"/>
      <point x="137.216" y="-124.928"/>
      <point x="456.704" y="-357.376"/>
    </contour>
    <contour>
      <point x="848.896" y="211.968" type="curve" smooth="yes"/>
      <point x="750.592" y="211.968"/>
      <point x="693.248" y="251.904"/>
      <point x="693.248" y="354.304" type="curve" smooth="yes"/>
      <point x="693.248" y="587.776"/>
      <point x="937.984" y="945.152"/>
      <point x="1185.79" y="945.152" type="curve" smooth="yes"/>
      <point x="1280" y="945.152"/>
      <point x="1345.54" y="875.52"/>
      <point x="1345.54" y="777.216" type="curve" smooth="yes"/>
      <point x="1345.54" y="537.6"/>
      <point x="1095.68" y="211.968"/>
    </contour>
  </outline>
</glyph>
<glyph name="M" format="2">
  <advance width="1804"/>
  <unicode hex="004D"/>
  <outline>
    <contour>
      <point x="1434.62" y="0" type="line"/>
      <point x="1769.47" y="1446.91" type="line"/>
      <point x="1532.93" y="1446.91" type="line"/>
      <point x="812.032" y="251.904" type="line"/>
      <point x="652.288" y="1446.91" type="line"/>
      <point x="417.792" y="1446.91" type="line"/>
      <point x="83.968" y="0" type="line"/>
      <point x="225.28" y="0" type="line"/>
      <point x="535.552" y="1336.32" type="line"/>
      <point x="708.608" y="125.952" type="line"/>
      <point x="868.352" y="125.952" type="line"/>
      <point x="1604.61" y="1336.32" type="line"/>
      <point x="1295.36" y="0" type="line"/>
    </contour>
  </outline>
</glyph>
<glyph name="backslash" format="2">
  <advance width="961"/>
  <unicode hex="005C"/>
  <outline>
    <contour>
      <point x="709.632" y="-441.344" type="line"/>
      <point x="406.528" y="1552.38" type="line"/>
      <point x="269.312" y="1552.38" type="line"/>
      <point x="577.536" y="-441.344" type="line"/>
    </contour>
  </outline>
</glyph>
<glyph name="underscore" format="2">
  <advance width="1274"/>
  <unicode hex="005F"/>
  <outline>
    <contour>
      <point x="886.784" y="-102.4" type="line"/>
      <point x="909.312" y="-3.072" type="line"/>
      <point x="128" y="-3.072" type="line"/>
      <point x="104.448" y="-102.4" type="line"/>
    </contour>
  </outline>
</glyph>
<glyph name="r" format="2">
  <advance width="846"/>
  <unicode hex="0072"/>
  <anchor x="628" y="1192" name="top"/>
  <anchor x="114" y="-120" name="bottom"/>
  <outline>
    <contour>
      <point x="196.8" y="0" type="line"/>
      <point x="327.872" y="549.888" type="line" smooth="yes"/>
      <point x="371.904" y="734.208"/>
      <point x="519.36" y="971.776"/>
      <point x="736.448" y="971.776" type="curve" smooth="yes"/>
      <point x="780.48" y="971.776"/>
      <point x="826.56" y="960.512"/>
      <point x="858.304" y="927.744" type="curve"/>
      <point x="915.648" y="1032.19" type="line"/>
      <point x="870.592" y="1063.94"/>
      <point x="806.08" y="1079.3"/>
      <point x="751.808" y="1079.3" type="curve" smooth="yes"/>
      <point x="590.016" y="1079.3"/>
      <point x="458.944" y="982.016"/>
      <point x="391.36" y="842.752" type="curve"/>
      <point x="442.56" y="1063.94" type="line"/>
      <point x="303.296" y="1063.94" type="line"/>
      <point x="58.56" y="0" type="line"/>
    </contour>
  </outline>
  <guideline angle="90" name="vertical" x="628" y="0"/>
</glyph>
<glyph name="braceleft" format="2">
  <advance width="616"/>
  <unicode hex="007B"/>
  <outline>
    <contour>
      <point x="401.408" y="-116.736" type="line"/>
      <point x="414.72" y="-48.128" type="line"/>
      <point x="357.376" y="-48.128" type="line" smooth="yes"/>
      <point x="291.84" y="-48.128"/>
      <point x="252.928" y="-24.576"/>
      <point x="252.928" y="19.456" type="curve" smooth="yes"/>
      <point x="252.928" y="51.2"/>
      <point x="257.024" y="70.656"/>
      <point x="266.24" y="114.688" type="curve" smooth="yes"/>
      <point x="325.632" y="389.12" type="line" smooth="yes"/>
      <point x="333.824" y="425.984"/>
      <point x="338.944" y="457.728"/>
      <point x="338.944" y="485.376" type="curve" smooth="yes"/>
      <point x="338.944" y="562.176"/>
      <point x="302.08" y="610.304"/>
      <point x="192.512" y="650.24" type="curve"/>
      <point x="377.856" y="713.728"/>
      <point x="418.816" y="759.808"/>
      <point x="457.728" y="942.08" type="curve" smooth="yes"/>
      <point x="521.216" y="1242.11" type="line" smooth="yes"/>
      <point x="556.032" y="1405.95"/>
      <point x="600.064" y="1455.1"/>
      <point x="711.68" y="1455.1" type="curve" smooth="yes"/>
      <point x="731.136" y="1455.1" type="line"/>
      <point x="746.496" y="1525.76" type="line"/>
      <point x="687.104" y="1525.76" type="line" smooth="yes"/>
      <point x="526.336" y="1525.76"/>
      <point x="449.536" y="1467.39"/>
      <point x="416.768" y="1318.91" type="curve" smooth="yes"/>
      <point x="319.488" y="881.664" type="line" smooth="yes"/>
      <point x="301.056" y="799.744"/>
      <point x="235.52" y="739.328"/>
      <point x="140.288" y="717.824" type="curve"/>
      <point x="128" y="611.328" type="line"/>
      <point x="196.608" y="579.584"/>
      <point x="217.088" y="534.528"/>
      <point x="217.088" y="480.256" type="curve" smooth="yes"/>
      <point x="217.088" y="450.56"/>
      <point x="210.944" y="417.792"/>
      <point x="202.752" y="384" type="curve" smooth="yes"/>
      <point x="141.312" y="108.544" type="line" smooth="yes"/>
      <point x="136.192" y="83.968"/>
      <point x="131.072" y="59.392"/>
      <point x="131.072" y="34.816" type="curve" smooth="yes"/>
      <point x="131.072" y="-56.32"/>
      <point x="219.136" y="-116.736"/>
      <point x="305.152" y="-116.736" type="curve" smooth="yes"/>
    </contour>
  </outline>
  <guideline angle="78.1402" x="623" y="942"/>
  <guideline angle="78.1402" x="458" y="942"/>
  <guideline angle="78.1402" x="458" y="942"/>
</glyph>
<glyph name="copyright" format="2">
  <advance width="1852"/>
  <unicode hex="00A9"/>
  <outline>
    <contour>
      <point x="973.824" y="-52.224" type="curve" smooth="yes"/>
      <point x="1392.64" y="-52.224"/>
      <point x="1737.73" y="297.984"/>
      <point x="1737.73" y="723.968" type="curve" smooth="yes"/>
      <point x="1737.73" y="1145.86"/>
      <point x="1389.57" y="1499.14"/>
      <point x="973.824" y="1499.14" type="curve" smooth="yes"/>
      <point x="557.056" y="1499.14"/>
      <point x="210.944" y="1147.9"/>
      <point x="210.944" y="723.968" type="curve" smooth="yes"/>
      <point x="210.944" y="296.96"/>
      <point x="555.008" y="-52.224"/>
    </contour>
    <contour>
      <point x="973.824" y="52.224" type="curve" smooth="yes"/>
      <point x="618.496" y="52.224"/>
      <point x="315.392" y="361.472"/>
      <point x="315.392" y="723.968" type="curve" smooth="yes"/>
      <point x="315.392" y="1085.44"/>
      <point x="618.496" y="1393.66"/>
      <point x="973.824" y="1393.66" type="curve" smooth="yes"/>
      <point x="1327.1" y="1393.66"/>
      <point x="1632.26" y="1082.37"/>
      <point x="1632.26" y="723.968" type="curve" smooth="yes"/>
      <point x="1632.26" y="361.472"/>
      <point x="1329.15" y="52.224"/>
    </contour>
    <contour>
      <point x="991.232" y="315.392" type="curve" smooth="yes"/>
      <point x="1127.42" y="315.392"/>
      <point x="1239.04" y="382.976"/>
      <point x="1294.34" y="498.688" type="curve"/>
      <point x="1197.06" y="539.648" type="line"/>
      <point x="1164.29" y="468.992"/>
      <point x="1080.32" y="420.864"/>
      <point x="989.184" y="420.864" type="curve" smooth="yes"/>
      <point x="836.608" y="420.864"/>
      <point x="739.328" y="537.6"/>
      <point x="739.328" y="721.92" type="curve" smooth="yes"/>
      <point x="739.328" y="904.192"/>
      <point x="838.656" y="1022.98"/>
      <point x="991.232" y="1022.98" type="curve" smooth="yes"/>
      <point x="1082.37" y="1022.98"/>
      <point x="1159.17" y="979.968"/>
      <point x="1199.1" y="906.24" type="curve"/>
      <point x="1294.34" y="946.176" type="line"/>
      <point x="1239.04" y="1057.79"/>
      <point x="1122.3" y="1127.42"/>
      <point x="991.232" y="1127.42" type="curve" smooth="yes"/>
      <point x="778.24" y="1127.42"/>
      <point x="637.952" y="966.656"/>
      <point x="637.952" y="721.92" type="curve" smooth="yes"/>
      <point x="637.952" y="473.088"/>
      <point x="775.168" y="315.392"/>
    </contour>
  </outline>
  <guideline angle="0" x="0" y="2002"/>
  <guideline angle="90" x="974" y="0"/>
  <guideline angle="0" x="0" y="724"/>
</glyph>
<glyph name="guillemotleft" format="2">
  <advance width="1001"/>
  <unicode hex="00AB"/>
  <outline>
    <contour>
      <point x="376.832" y="198.656" type="line"/>
      <point x="407.552" y="350.208" type="line"/>
      <point x="247.808" y="524.288" type="line"/>
      <point x="491.52" y="696.32" type="line"/>
      <point x="523.264" y="846.848" type="line"/>
      <point x="87.04" y="523.264" type="line"/>
    </contour>
    <contour>
      <point x="750.592" y="197.632" type="line"/>
      <point x="782.336" y="350.208" type="line"/>
      <point x="620.544" y="524.288" type="line"/>
      <point x="865.28" y="696.32" type="line"/>
      <point x="897.024" y="846.848" type="line"/>
      <point x="459.776" y="523.264" type="line"/>
    </contour>
  </outline>
</glyph>
<glyph name="twosuperior" format="2">
  <advance width="836"/>
  <unicode hex="00B2"/>
  <outline>
    <contour>
      <point x="630.784" y="499.712" type="line"/>
      <point x="649.216" y="583.68" type="line"/>
      <point x="114.688" y="583.68" type="line"/>
      <point x="334.848" y="697.32"/>
      <point x="761.856" y="993.28"/>
      <point x="761.856" y="1281.02" type="curve" smooth="yes"/>
      <point x="761.856" y="1420.29"/>
      <point x="658.432" y="1481.73"/>
      <point x="530.432" y="1481.73" type="curve" smooth="yes"/>
      <point x="344.064" y="1481.73"/>
      <point x="215.04" y="1341.44"/>
      <point x="174.08" y="1168.38" type="curve"/>
      <point x="261.12" y="1154.05" type="line"/>
      <point x="293.888" y="1276.93"/>
      <point x="380.928" y="1391.62"/>
      <point x="519.168" y="1391.62" type="curve" smooth="yes"/>
      <point x="605.184" y="1391.62"/>
      <point x="656.384" y="1348.61"/>
      <point x="656.384" y="1261.57" type="curve" smooth="yes"/>
      <point x="656.384" y="1008.64"/>
      <point x="197.632" y="707.584"/>
      <point x="-6.14396" y="595.968" type="curve"/>
      <point x="-25.6" y="499.712" type="line"/>
    </contour>
  </outline>
</glyph>
<glyph name="ordmasculine" format="2">
  <advance width="996"/>
  <unicode hex="00BA"/>
  <outline>
    <contour>
      <point x="560.128" y="729.088" type="curve" smooth="yes"/>
      <point x="798.72" y="729.088"/>
      <point x="984.064" y="955.392"/>
      <point x="984.064" y="1184.77" type="curve" smooth="yes"/>
      <point x="984.064" y="1349.63"/>
      <point x="876.544" y="1468.42"/>
      <point x="708.608" y="1468.42" type="curve" smooth="yes"/>
      <point x="473.088" y="1468.42"/>
      <point x="282.624" y="1243.14"/>
      <point x="282.624" y="1014.78" type="curve" smooth="yes"/>
      <point x="282.624" y="845.824"/>
      <point x="388.096" y="729.088"/>
    </contour>
    <contour>
      <point x="562.176" y="830.464" type="curve" smooth="yes"/>
      <point x="455.68" y="830.464"/>
      <point x="400.384" y="887.808"/>
      <point x="400.384" y="994.304" type="curve" smooth="yes"/>
      <point x="400.384" y="1171.46"/>
      <point x="512" y="1368.06"/>
      <point x="708.608" y="1368.06" type="curve" smooth="yes"/>
      <point x="815.104" y="1368.06"/>
      <point x="866.304" y="1306.62"/>
      <point x="866.304" y="1203.2" type="curve" smooth="yes"/>
      <point x="866.304" y="1030.14"/>
      <point x="754.688" y="830.464"/>
    </contour>
  </outline>
</glyph>
<glyph name="oe" format="2">
  <advance width="1927"/>
  <unicode hex="0153"/>
  <outline>
    <contour>
      <point x="482" y="-20" type="curve" smooth="yes"/>
      <point x="672" y="-20"/>
      <point x="836" y="74"/>
      <point x="947" y="224" type="curve"/>
      <point x="996" y="55"/>
      <point x="1125" y="-12"/>
      <point x="1294" y="-12" type="curve" smooth="yes"/>
      <point x="1466" y="-12"/>
      <point x="1586" y="33"/>
      <point x="1720" y="139" type="curve"/>
      <point x="1640" y="216" type="line"/>
      <point x="1540" y="127"/>
      <point x="1438" y="100"/>
      <point x="1306" y="100" type="curve" smooth="yes"/>
      <point x="1141" y="100"/>
      <point x="1059" y="199"/>
      <point x="1059" y="359" type="curve" smooth="yes"/>
      <point x="1059" y="401"/>
      <point x="1065" y="444"/>
      <point x="1074" y="485" type="curve"/>
      <point x="1814" y="485" type="line"/>
      <point x="1841" y="568"/>
      <point x="1855" y="656"/>
      <point x="1855" y="743" type="curve" smooth="yes"/>
      <point x="1855" y="965"/>
      <point x="1716" y="1077"/>
      <point x="1502" y="1077" type="curve" smooth="yes"/>
      <point x="1315" y="1077"/>
      <point x="1180" y="980"/>
      <point x="1074" y="834" type="curve"/>
      <point x="1017" y="997"/>
      <point x="889" y="1077"/>
      <point x="718" y="1077" type="curve" smooth="yes"/>
      <point x="366" y="1077"/>
      <point x="97" y="722"/>
      <point x="97" y="387" type="curve" smooth="yes"/>
      <point x="97" y="156"/>
      <point x="243" y="-20"/>
    </contour>
    <contour>
      <point x="495" y="102" type="curve" smooth="yes"/>
      <point x="326" y="102"/>
      <point x="234" y="214"/>
      <point x="234" y="378" type="curve" smooth="yes"/>
      <point x="234" y="639"/>
      <point x="420" y="954"/>
      <point x="709" y="954" type="curve" smooth="yes"/>
      <point x="881" y="954"/>
      <point x="969" y="850"/>
      <point x="969" y="682" type="curve" smooth="yes"/>
      <point x="969" y="416"/>
      <point x="788" y="102"/>
    </contour>
    <contour>
      <point x="1718" y="598" type="curve"/>
      <point x="1100" y="598" type="line"/>
      <point x="1146" y="786"/>
      <point x="1282" y="961"/>
      <point x="1491" y="961" type="curve" smooth="yes"/>
      <point x="1639" y="961"/>
      <point x="1742" y="896"/>
      <point x="1742" y="737" type="curve" smooth="yes"/>
      <point x="1742" y="689"/>
      <point x="1731" y="643"/>
    </contour>
  </outline>
</glyph>
<glyph name="tilde" format="2">
  <advance width="747"/>
  <unicode hex="02DC"/>
  <outline>
    <contour>
      <point x="886.633" y="1425.2" type="line"/>
      <point x="869.375" y="1350.45" type="line" smooth="yes"/>
      <point x="845.025" y="1244.98"/>
      <point x="766.407" y="1179.44"/>
      <point x="676.295" y="1179.44" type="curve" smooth="yes"/>
      <point x="608.711" y="1179.44"/>
      <point x="569.959" y="1203.72"/>
      <point x="524.672" y="1263.41" type="curve" smooth="yes"/>
      <point x="498.506" y="1297.9"/>
      <point x="473.405" y="1333.06"/>
      <point x="425.338" y="1333.06" type="curve" smooth="yes"/>
      <point x="380.282" y="1333.06"/>
      <point x="350.11" y="1304.39"/>
      <point x="338.526" y="1254.22" type="curve" smooth="yes"/>
      <point x="324.578" y="1193.8" type="line"/>
      <point x="232.418" y="1193.8" type="line"/>
      <point x="249.676" y="1268.55" type="line" smooth="yes"/>
      <point x="274.026" y="1374.02"/>
      <point x="352.644" y="1439.56"/>
      <point x="442.756" y="1439.56" type="curve" smooth="yes"/>
      <point x="510.34" y="1439.56"/>
      <point x="548.698" y="1414.98"/>
      <point x="594.379" y="1355.59" type="curve" smooth="yes"/>
      <point x="620.369" y="1321.8"/>
      <point x="653.777" y="1285.94"/>
      <point x="693.713" y="1285.94" type="curve" smooth="yes"/>
      <point x="738.769" y="1285.94"/>
      <point x="768.941" y="1314.61"/>
      <point x="780.525" y="1364.78" type="curve" smooth="yes"/>
      <point x="794.473" y="1425.2" type="line"/>
    </contour>
  </outline>
</glyph>
<glyph name="gravecomb" format="2">
  <unicode hex="0300"/>
  <anchor x="-131" y="1192" name="_top"/>
  <outline>
    <contour>
      <point x="-55.768" y="1191.94" type="line"/>
      <point x="-212.44" y="1486.85" type="line"/>
      <point x="-381.4" y="1486.85" type="line"/>
      <point x="-178.648" y="1191.94" type="line"/>
    </contour>
  </outline>
</glyph>
<glyph name="caroncomb" format="2">
  <unicode hex="030C"/>
  <anchor x="-228" y="1192" name="_top"/>
  <outline>
    <contour>
      <point x="-256.088" y="1191.94" type="line"/>
      <point x="156.584" y="1528.83" type="line"/>
      <point x="-2.13596" y="1528.83" type="line"/>
      <point x="-230.488" y="1333.25" type="line"/>
      <point x="-362.584" y="1528.83" type="line"/>
      <point x="-516.184" y="1528.83" type="line"/>
    </contour>
  </outline>
</glyph>
<glyph name="ogonekcomb" format="2">
  <unicode hex="0328"/>
  <anchor x="-283" y="0" name="_ogonek"/>
  <outline>
    <contour>
      <point x="-508.064" y="-461.824" type="curve" smooth="yes"/>
      <point x="-410.784" y="-461.824"/>
      <point x="-346.272" y="-420.864"/>
      <point x="-280.736" y="-351.232" type="curve"/>
      <point x="-365.728" y="-274.432" type="line"/>
      <point x="-405.664" y="-318.464"/>
      <point x="-452.768" y="-345.088"/>
      <point x="-514.208" y="-345.088" type="curve" smooth="yes"/>
      <point x="-554.144" y="-345.088"/>
      <point x="-573.6" y="-319.488"/>
      <point x="-573.6" y="-281.6" type="curve" smooth="yes"/>
      <point x="-573.6" y="-140.288"/>
      <point x="-394.4" y="-46.104"/>
      <point x="-282.784" y="0" type="curve"/>
      <point x="-410.784" y="0" type="line"/>
      <point x="-503.968" y="-41.936"/>
      <point x="-685.216" y="-172.032"/>
      <point x="-685.216" y="-292.864" type="curve" smooth="yes"/>
      <point x="-685.216" y="-403.456"/>
      <point x="-614.56" y="-461.824"/>
    </contour>
  </outline>
</glyph>
<glyph name="Psi" format="2">
  <advance width="1368"/>
  <unicode hex="03A8"/>
  <outline>
    <contour>
      <point x="638" y="0" type="line"/>
      <point x="779" y="608" type="line"/>
      <point x="915" y="621"/>
      <point x="1118" y="716"/>
      <point x="1268" y="884"/>
      <point x="1371.43" y="1125.9"/>
      <point x="1408" y="1286" type="qcurve" smooth="yes"/>
      <point x="1445" y="1448" type="line"/>
      <point x="1302" y="1448" type="line"/>
      <point x="1267" y="1292" type="line" smooth="yes"/>
      <point x="1209.49" y="1035.66"/>
      <point x="997" y="767"/>
      <point x="809" y="740" type="qcurve"/>
      <point x="972" y="1448" type="line"/>
      <point x="827" y="1448" type="line"/>
      <point x="664" y="740" type="line"/>
      <point x="570" y="754"/>
      <point x="458" y="834"/>
      <point x="411" y="970"/>
      <point x="424.268" y="1163.94"/>
      <point x="453" y="1292" type="qcurve" smooth="yes"/>
      <point x="488" y="1448" type="line"/>
      <point x="345" y="1448" type="line"/>
      <point x="309" y="1286" type="line" smooth="yes"/>
      <point x="273.164" y="1124.74"/>
      <point x="265" y="882"/>
      <point x="339" y="715"/>
      <point x="501" y="621"/>
      <point x="633" y="608" type="qcurve"/>
      <point x="493" y="0" type="line"/>
    </contour>
  </outline>
</glyph>
<glyph name="epsilon" format="2">
  <advance width="1128"/>
  <unicode hex="03B5"/>
  <anchor x="532" y="1229" name="tonos.top"/>
  <outline>
    <contour>
      <point x="62.423" y="263.368" type="curve" smooth="yes"/>
      <point x="62.423" y="42.7082"/>
      <point x="344.277" y="-12.885"/>
      <point x="515.71" y="-12.885" type="curve" smooth="yes"/>
      <point x="710.868" y="-12.885"/>
      <point x="851.23" y="55.9249"/>
      <point x="935" y="234" type="curve"/>
      <point x="806" y="254" type="line"/>
      <point x="748.158" y="136.847"/>
      <point x="645.615" y="87.6523"/>
      <point x="516.767" y="87.6523" type="curve" smooth="yes"/>
      <point x="394.071" y="87.6523"/>
      <point x="207.465" y="129.502"/>
      <point x="207.465" y="284.204" type="curve" smooth="yes"/>
      <point x="207.465" y="411.623"/>
      <point x="344.307" y="504.8"/>
      <point x="468.649" y="504.337" type="curve" smooth="yes"/>
      <point x="671.695" y="503.579" type="line"/>
      <point x="696.156" y="609.531" type="line"/>
      <point x="500.002" y="610.488" type="line" smooth="yes"/>
      <point x="425.14" y="610.853"/>
      <point x="355.34" y="703.708"/>
      <point x="355.34" y="776.679" type="curve" smooth="yes"/>
      <point x="355.34" y="918.165"/>
      <point x="478.575" y="976.866"/>
      <point x="603.576" y="976.866" type="curve" smooth="yes"/>
      <point x="791.236" y="976.866"/>
      <point x="883.934" y="922.265"/>
      <point x="891.79" y="807.102" type="curve"/>
      <point x="1017.74" y="820.878" type="line"/>
      <point x="993.42" y="995.448"/>
      <point x="852.664" y="1080.24"/>
      <point x="587.177" y="1080.24" type="curve" smooth="yes"/>
      <point x="402.658" y="1080.24"/>
      <point x="225.655" y="989.05"/>
      <point x="225.655" y="782.632" type="curve" smooth="yes"/>
      <point x="225.655" y="678.171"/>
      <point x="285.774" y="591.037"/>
      <point x="383.922" y="560.066" type="curve"/>
      <point x="392.739" y="576.171" type="line"/>
      <point x="219.857" y="552.704"/>
      <point x="62.423" y="453.695"/>
    </contour>
  </outline>
</glyph>
<glyph name="lambda" format="2">
  <advance width="1124"/>
  <unicode hex="03BB"/>
  <outline>
    <contour>
      <point x="563" y="1290" type="qcurve" smooth="yes"/>
      <point x="717" y="129" type="line"/>
      <point x="726" y="56"/>
      <point x="788" y="-4"/>
      <point x="859" y="-4" type="qcurve" smooth="yes"/>
      <point x="869" y="-4"/>
      <point x="890" y="-3"/>
      <point x="911" y="-1"/>
      <point x="933" y="1"/>
      <point x="944" y="3" type="qcurve"/>
      <point x="968" y="105" type="line"/>
      <point x="898" y="105"/>
      <point x="853" y="124"/>
      <point x="848" y="159" type="qcurve" smooth="yes"/>
      <point x="704" y="1269" type="line"/>
      <point x="698" y="1320"/>
      <point x="679" y="1403"/>
      <point x="641" y="1464"/>
      <point x="578" y="1498"/>
      <point x="528" y="1498" type="qcurve" smooth="yes"/>
      <point x="507" y="1498"/>
      <point x="448" y="1492"/>
      <point x="410" y="1485" type="qcurve"/>
      <point x="384" y="1376" type="line"/>
      <point x="409" y="1380"/>
      <point x="456" y="1385"/>
      <point x="484" y="1385" type="qcurve" smooth="yes"/>
      <point x="523" y="1385"/>
      <point x="556" y="1343"/>
    </contour>
    <contour>
      <point x="644" y="1115" type="line"/>
      <point x="-54" y="3" type="line"/>
      <point x="78" y="3" type="line"/>
      <point x="666" y="955" type="line"/>
    </contour>
  </outline>
</glyph>
<glyph name="sigmafinal" format="2">
  <advance width="1075"/>
  <unicode hex="03C2"/>
  <outline>
    <contour>
      <point x="707" y="1047" type="curve" smooth="yes"/>
      <point x="340.635" y="1047"/>
      <point x="90.4771" y="750.374"/>
      <point x="90.4771" y="393.489" type="curve" smooth="yes"/>
      <point x="90.4771" y="252.663"/>
      <point x="148.852" y="143.547"/>
      <point x="290" y="102" type="curve" smooth="yes"/>
      <point x="686" y="-14" type="line" smooth="yes"/>
      <point x="712.085" y="-21.6411"/>
      <point x="720.682" y="-45.2035"/>
      <point x="720.682" y="-70.0931" type="curve" smooth="yes"/>
      <point x="720.682" y="-162.537"/>
      <point x="617.786" y="-330.081"/>
      <point x="566" y="-410" type="curve"/>
      <point x="679" y="-410" type="line"/>
      <point x="745.565" y="-314.164"/>
      <point x="843.608" y="-146.419"/>
      <point x="843.608" y="-29.3329" type="curve" smooth="yes"/>
      <point x="843.608" y="27.7134"/>
      <point x="818.545" y="71.0521"/>
      <point x="762" y="88" type="curve" smooth="yes"/>
      <point x="395" y="198" type="line" smooth="yes"/>
      <point x="274.368" y="234.271"/>
      <point x="226.715" y="327.799"/>
      <point x="226.715" y="448.254" type="curve" smooth="yes"/>
      <point x="226.715" y="700.697"/>
      <point x="406.492" y="941.083"/>
      <point x="671.912" y="941.083" type="curve" smooth="yes"/>
      <point x="815.448" y="941.083"/>
      <point x="929.528" y="887.874"/>
      <point x="929.528" y="727.761" type="curve" smooth="yes"/>
      <point x="929.528" y="701.686"/>
      <point x="926.626" y="675.638"/>
      <point x="922" y="650" type="curve"/>
      <point x="1044" y="650" type="line"/>
      <point x="1050.78" y="684.471"/>
      <point x="1054.97" y="719.573"/>
      <point x="1054.97" y="754.737" type="curve" smooth="yes"/>
      <point x="1054.97" y="966.773"/>
      <point x="898.768" y="1047"/>
    </contour>
  </outline>
</glyph>
<glyph name="Kacyr" format="2">
  <advance width="1284"/>
  <unicode hex="041A"/>
  <anchor x="834" y="1620" name="top"/>
  <outline>
    <component base="I"/>
    <contour>
      <point x="1081" y="0" type="line"/>
      <point x="981" y="607" type="line" smooth="yes"/>
      <point x="958" y="747"/>
      <point x="871" y="828"/>
      <point x="741" y="828" type="curve"/>
      <point x="760" y="803" type="line"/>
      <point x="1337" y="1448" type="line"/>
      <point x="1160" y="1448" type="line"/>
      <point x="620" y="845" type="line"/>
      <point x="412" y="845" type="line"/>
      <point x="381" y="705" type="line"/>
      <point x="616" y="705" type="line" smooth="yes"/>
      <point x="746" y="705"/>
      <point x="816" y="682"/>
      <point x="834" y="562" type="curve" smooth="yes"/>
      <point x="919" y="0" type="line"/>
    </contour>
  </outline>
  <guideline angle="90" name="vertical" x="834" y="0"/>
</glyph>
<glyph name="decyr" format="2">
  <advance width="1168"/>
  <unicode hex="0434"/>
  <anchor x="645" y="1192" name="top"/>
  <outline>
    <contour>
      <point x="493.568" y="-16.384" type="curve" smooth="yes"/>
      <point x="945.392" y="-16.384"/>
      <point x="1140.74" y="478.678"/>
      <point x="1140.74" y="863.232" type="curve" smooth="yes"/>
      <point x="1140.74" y="1055.24"/>
      <point x="1066.78" y="1222.74"/>
      <point x="948.156" y="1332.51" type="curve" smooth="yes"/>
      <point x="856.626" y="1417.21"/>
      <point x="738.503" y="1467.54"/>
      <point x="607.241" y="1468.25" type="curve" smooth="yes"/>
      <point x="551.978" y="1468.54"/>
      <point x="494.933" y="1462.96"/>
      <point x="437.418" y="1446.92" type="curve"/>
      <point x="395.792" y="1329.27" type="line"/>
      <point x="452.691" y="1361.4"/>
      <point x="522.31" y="1364.32"/>
      <point x="585.577" y="1363.61" type="curve" smooth="yes"/>
      <point x="679.71" y="1362.54"/>
      <point x="765.4" y="1320.47"/>
      <point x="832.678" y="1267.86" type="curve" smooth="yes"/>
      <point x="922.904" y="1197.3"/>
      <point x="980.016" y="1078.65"/>
      <point x="979.968" y="971.776" type="curve"/>
      <point x="924.255" y="1057.54"/>
      <point x="791.82" y="1085.44"/>
      <point x="696.32" y="1085.44" type="curve" smooth="yes"/>
      <point x="343.846" y="1085.44"/>
      <point x="94.2079" y="734.774"/>
      <point x="94.2079" y="404.48" type="curve" smooth="yes"/>
      <point x="94.2079" y="155.37"/>
      <point x="236.697" y="-16.384"/>
    </contour>
    <contour>
      <point x="493.568" y="109.568" type="curve" smooth="yes"/>
      <point x="315.498" y="109.568"/>
      <point x="241.664" y="232.896"/>
      <point x="241.664" y="397.312" type="curve" smooth="yes"/>
      <point x="241.664" y="664.562"/>
      <point x="421.192" y="977.92"/>
      <point x="717.824" y="977.92" type="curve" smooth="yes"/>
      <point x="881.623" y="977.92"/>
      <point x="969.728" y="860.646"/>
      <point x="969.728" y="704.512" type="curve" smooth="yes"/>
      <point x="969.728" y="444.957"/>
      <point x="784.471" y="109.568"/>
    </contour>
  </outline>
</glyph>
<glyph name="elcyr" format="2">
  <advance width="1139"/>
  <unicode hex="043B"/>
  <outline>
    <contour>
      <point x="46.0025" y="-23.552" type="curve" smooth="yes"/>
      <point x="188.257" y="-23.552"/>
      <point x="275.715" y="44.1307"/>
      <point x="327.337" y="211.902" type="curve" smooth="yes"/>
      <point x="557.36" y="959.488" type="line"/>
      <point x="930.096" y="959.488" type="line"/>
      <point x="708.912" y="0" type="line"/>
      <point x="845.104" y="0" type="line"/>
      <point x="1088.82" y="1063.94" type="line"/>
      <point x="447.792" y="1063.94" type="line"/>
      <point x="199.717" y="247.333" type="line" smooth="yes"/>
      <point x="164.322" y="130.82"/>
      <point x="121.762" y="83.968"/>
      <point x="57.7472" y="83.968" type="curve" smooth="yes"/>
      <point x="27.8678" y="83.968"/>
      <point x="-11.8205" y="92.8396"/>
      <point x="-34.3811" y="105.719" type="curve"/>
      <point x="-84.992" y="20.48" type="line"/>
      <point x="-53.8028" y="-7.16801"/>
      <point x="8.57551" y="-23.552"/>
    </contour>
  </outline>
  <guideline angle="72.9122" x="474" y="689"/>
  <guideline angle="253.09" x="448" y="1064"/>
</glyph>
<glyph name="yusbigcyr" format="2">
  <advance width="1209"/>
  <unicode hex="046B"/>
  <outline>
    <contour>
      <point x="1040.96" y="0" type="line"/>
      <point x="980.613" y="361.818" type="line" smooth="yes"/>
      <point x="960.727" y="481.038"/>
      <point x="867.948" y="528.205"/>
      <point x="742.438" y="528.205" type="curve"/>
      <point x="1130.77" y="958.464" type="line"/>
      <point x="1154.32" y="1063.94" type="line"/>
      <point x="311.568" y="1063.94" type="line"/>
      <point x="290.064" y="957.44" type="line"/>
      <point x="491.727" y="528.205" type="line"/>
      <point x="328.935" y="528.205"/>
      <point x="228.004" y="496.805"/>
      <point x="142.981" y="350.554" type="curve" smooth="yes"/>
      <point x="-60.8145" y="0" type="line"/>
      <point x="97.9055" y="0" type="line"/>
      <point x="263.813" y="297.306" type="line" smooth="yes"/>
      <point x="310.629" y="381.2"/>
      <point x="394.78" y="419.84"/>
      <point x="472.036" y="419.84" type="curve" smooth="yes"/>
      <point x="518.036" y="419.84" type="line"/>
      <point x="421.136" y="0" type="line"/>
      <point x="561.424" y="0" type="line"/>
      <point x="658.29" y="419.84" type="line"/>
      <point x="695.758" y="419.84" type="line" smooth="yes"/>
      <point x="787.136" y="419.84"/>
      <point x="846.845" y="390.326"/>
      <point x="854.85" y="318.644" type="curve" smooth="yes"/>
      <point x="890.435" y="0" type="line"/>
    </contour>
    <contour>
      <point x="658.662" y="504.421" type="line"/>
      <point x="450.832" y="959.488" type="line"/>
      <point x="964.88" y="959.488" type="line"/>
      <point x="562.614" y="504.421" type="line"/>
    </contour>
  </outline>
  <guideline angle="256.986" x="519" y="424"/>
  <guideline angle="76.9856" x="561" y="0"/>
</glyph>
<glyph name="geupcyr" format="2">
  <advance width="819"/>
  <unicode hex="0491"/>
  <outline>
    <component base="dotlessi"/>
    <contour>
      <point x="396.447" y="958.488" type="line"/>
      <point x="894.472" y="958.488" type="line"/>
      <point x="797.409" y="1063.94" type="line"/>
      <point x="421.146" y="1063.94" type="line"/>
    </contour>
    <contour>
      <point x="894" y="958" type="line"/>
      <point x="982.848" y="1338.37" type="line"/>
      <point x="851.704" y="1338.37" type="line"/>
      <point x="777.685" y="1033.58" type="line"/>
    </contour>
  </outline>
  <guideline angle="76.7848" x="894" y="959"/>
  <guideline angle="256.608" x="421" y="1064"/>
</glyph>
<glyph name="gestrokecyr" format="2">
  <advance width="813"/>
  <unicode hex="0493"/>
  <outline>
    <contour>
      <point x="63.488" y="0" type="line"/>
      <point x="198.656" y="0" type="line"/>
      <point x="418.816" y="958.488" type="line"/>
      <point x="872.448" y="958.488" type="line"/>
      <point x="897.024" y="1063.94" type="line"/>
      <point x="309.248" y="1063.94" type="line"/>
    </contour>
    <contour>
      <point x="43.008" y="585.728" type="line"/>
      <point x="19.456" y="485.376" type="line"/>
      <point x="624.64" y="485.376" type="line"/>
      <point x="648.192" y="585.728" type="line"/>
    </contour>
  </outline>
  <guideline angle="77.0796" x="199" y="0"/>
  <guideline angle="76.6075" x="872" y="959"/>
</glyph>
<glyph name="entailcyr" format="2">
  <advance width="1226"/>
  <unicode hex="04A3"/>
  <outline>
    <component base="encyr"/>
    <contour>
      <point x="939.375" y="-307.359" type="line"/>
      <point x="1036.28" y="115.195" type="line"/>
      <point x="858.3" y="115.195" type="line"/>
      <point x="829.885" y="0" type="line"/>
      <point x="882" y="0" type="line"/>
      <point x="810.375" y="-307.359" type="line"/>
    </contour>
  </outline>
</glyph>
<glyph name="xatailcyr" format="2">
  <advance width="972"/>
  <unicode hex="04B3"/>
  <outline>
    <component base="x"/>
    <contour>
      <point x="810.296" y="-307.359" type="line"/>
      <point x="907.202" y="115.195" type="line"/>
      <point x="729.22" y="115.195" type="line"/>
      <point x="700.805" y="0" type="line"/>
      <point x="752.921" y="0" type="line"/>
      <point x="681.296" y="-307.359" type="line"/>
    </contour>
  </outline>
</glyph>
<glyph name="bullet" format="2">
  <advance width="866"/>
  <unicode hex="2022"/>
  <outline>
    <contour>
      <point x="385.024" y="249.856" type="curve" smooth="yes"/>
      <point x="532.48" y="249.856"/>
      <point x="674.816" y="386.048"/>
      <point x="674.816" y="534.528" type="curve" smooth="yes"/>
      <point x="674.816" y="650.24"/>
      <point x="587.776" y="734.208"/>
      <point x="473.088" y="734.208" type="curve" smooth="yes"/>
      <point x="328.704" y="734.208"/>
      <point x="182.272" y="601.088"/>
      <point x="182.272" y="453.632" type="curve" smooth="yes"/>
      <point x="182.272" y="333.824"/>
      <point x="262.144" y="249.856"/>
    </contour>
  </outline>
</glyph>
<glyph name="twodotenleader" format="2">
  <advance width="1114"/>
  <unicode hex="2025"/>
  <outline>
    <contour>
      <point x="323.584" y="0" type="line"/>
      <point x="365.568" y="181.248" type="line"/>
      <point x="175.104" y="181.248" type="line"/>
      <point x="132.096" y="0" type="line"/>
    </contour>
    <contour>
      <point x="747.52" y="0" type="line"/>
      <point x="789.504" y="181.248" type="line"/>
      <point x="600.064" y="181.248" type="line"/>
      <point x="557.056" y="0" type="line"/>
    </contour>
  </outline>
</glyph>
<glyph name="zero.superior" format="2">
  <advance width="856"/>
  <unicode hex="2070"/>
  <outline>
    <contour>
      <point x="427.92" y="482.304" type="curve" smooth="yes"/>
      <point x="734.096" y="482.304"/>
      <point x="909.2" y="889.856"/>
      <point x="909.2" y="1150.98" type="curve" smooth="yes"/>
      <point x="909.2" y="1320.96"/>
      <point x="838.544" y="1487.87"/>
      <point x="643.984" y="1487.87" type="curve" smooth="yes"/>
      <point x="331.664" y="1487.87"/>
      <point x="159.632" y="1080.32"/>
      <point x="159.632" y="814.08" type="curve" smooth="yes"/>
      <point x="159.632" y="635.904"/>
      <point x="227.216" y="482.304"/>
    </contour>
    <contour>
      <point x="436.112" y="574.464" type="curve" smooth="yes"/>
      <point x="292.752" y="574.464"/>
      <point x="256.912" y="697.344"/>
      <point x="256.912" y="817.152" type="curve" smooth="yes"/>
      <point x="256.912" y="1016.83"/>
      <point x="386.96" y="1391.62"/>
      <point x="629.648" y="1391.62" type="curve" smooth="yes"/>
      <point x="765.84" y="1391.62"/>
      <point x="802.704" y="1266.69"/>
      <point x="802.704" y="1153.02" type="curve" smooth="yes"/>
      <point x="802.704" y="957.44"/>
      <point x="676.752" y="574.464"/>
    </contour>
  </outline>
</glyph>
<glyph name="four.inferior" format="2">
  <advance width="868"/>
  <unicode hex="2084"/>
  <outline>
    <contour>
      <point x="383.168" y="-487.696" type="line"/>
      <point x="445.632" y="-221.456" type="line"/>
      <point x="600.256" y="-221.456" type="line"/>
      <point x="618.688" y="-136.464" type="line"/>
      <point x="466.112" y="-136.464" type="line"/>
      <point x="613.568" y="481.008" type="line"/>
      <point x="520.384" y="481.008" type="line"/>
      <point x="-98.112" y="-164.112" type="line"/>
      <point x="-110.4" y="-221.456" type="line"/>
      <point x="346.304" y="-221.456" type="line"/>
      <point x="283.84" y="-487.696" type="line"/>
    </contour>
    <contour>
      <point x="366.784" y="-136.464" type="line"/>
      <point x="29.888" y="-136.464" type="line"/>
      <point x="478.4" y="335.6" type="line"/>
    </contour>
  </outline>
</glyph>
<glyph name="arrowleft" format="2">
  <advance width="2250"/>
  <unicode hex="2190"/>
  <outline>
    <contour>
      <point x="1020.93" y="154.624" type="line"/>
      <point x="1076.22" y="250.88" type="line"/>
      <point x="422.912" y="605.184" type="line"/>
      <point x="2107.39" y="605.184" type="line"/>
      <point x="2107.39" y="695.296" type="line"/>
      <point x="408.576" y="695.296" type="line"/>
      <point x="1076.22" y="1048.58" type="line"/>
      <point x="1019.9" y="1147.9" type="line"/>
      <point x="128" y="654.336" type="line"/>
    </contour>
  </outline>
</glyph>
<glyph name="infinity" format="2">
  <advance width="1963"/>
  <unicode hex="221E"/>
  <outline>
    <contour>
      <point x="1398.78" y="363.52" type="curve" smooth="yes"/>
      <point x="1633.28" y="363.52"/>
      <point x="1760.26" y="527.36"/>
      <point x="1760.26" y="752.64" type="curve" smooth="yes"/>
      <point x="1760.26" y="976.896"/>
      <point x="1632.26" y="1141.76"/>
      <point x="1398.78" y="1141.76" type="curve" smooth="yes"/>
      <point x="1223.68" y="1141.76"/>
      <point x="1080.32" y="1030.14"/>
      <point x="982.016" y="893.952" type="curve"/>
      <point x="880.64" y="1030.14"/>
      <point x="744.448" y="1141.76"/>
      <point x="566.272" y="1141.76" type="curve" smooth="yes"/>
      <point x="330.752" y="1141.76"/>
      <point x="202.752" y="977.92"/>
      <point x="202.752" y="752.64" type="curve" smooth="yes"/>
      <point x="202.752" y="525.312"/>
      <point x="329.728" y="363.52"/>
      <point x="566.272" y="363.52" type="curve" smooth="yes"/>
      <point x="743.424" y="363.52"/>
      <point x="880.64" y="475.136"/>
      <point x="982.016" y="611.328" type="curve"/>
      <point x="1080.32" y="472.064"/>
      <point x="1222.66" y="363.52"/>
    </contour>
    <contour>
      <point x="598.016" y="475.136" type="curve" smooth="yes"/>
      <point x="430.08" y="475.136"/>
      <point x="335.872" y="590.848"/>
      <point x="335.872" y="752.64" type="curve" smooth="yes"/>
      <point x="335.872" y="912.384"/>
      <point x="431.104" y="1030.14"/>
      <point x="598.016" y="1030.14" type="curve" smooth="yes"/>
      <point x="743.424" y="1030.14"/>
      <point x="862.208" y="872.448"/>
      <point x="919.552" y="752.64" type="curve"/>
      <point x="865.28" y="629.76"/>
      <point x="745.472" y="475.136"/>
    </contour>
    <contour>
      <point x="1367.04" y="475.136" type="curve" smooth="yes"/>
      <point x="1219.58" y="475.136"/>
      <point x="1097.73" y="630.784"/>
      <point x="1043.46" y="752.64" type="curve"/>
      <point x="1097.73" y="878.592"/>
      <point x="1217.54" y="1030.14"/>
      <point x="1367.04" y="1030.14" type="curve" smooth="yes"/>
      <point x="1530.88" y="1030.14"/>
      <point x="1628.16" y="911.36"/>
      <point x="1628.16" y="752.64" type="curve" smooth="yes"/>
      <point x="1628.16" y="592.896"/>
      <point x="1533.95" y="475.136"/>
    </contour>
  </outline>
</glyph>
<glyph name="notequal" format="2">
  <advance width="1225"/>
  <unicode hex="2260"/>
  <outline>
    <contour>
      <point x="306.176" y="0" type="line"/>
      <point x="538.624" y="443.392" type="line"/>
      <point x="992.256" y="443.392" type="line"/>
      <point x="992.256" y="575.488" type="line"/>
      <point x="610.304" y="575.488" type="line"/>
      <point x="731.136" y="798.72" type="line"/>
      <point x="992.256" y="798.72" type="line"/>
      <point x="992.256" y="930.816" type="line"/>
      <point x="799.744" y="930.816" type="line"/>
      <point x="1073.15" y="1446.91" type="line"/>
      <point x="928.768" y="1446.91" type="line"/>
      <point x="655.36" y="930.816" type="line"/>
      <point x="222.208" y="930.816" type="line"/>
      <point x="222.208" y="798.72" type="line"/>
      <point x="583.68" y="798.72" type="line"/>
      <point x="463.872" y="575.488" type="line"/>
      <point x="222.208" y="575.488" type="line"/>
      <point x="222.208" y="443.392" type="line"/>
      <point x="395.264" y="443.392" type="line"/>
      <point x="159.744" y="0" type="line"/>
    </contour>
  </outline>
</glyph>
<glyph name="greaterequal" format="2">
  <advance width="1369"/>
  <unicode hex="2265"/>
  <outline>
    <contour>
      <point x="253.952" y="115.712" type="line"/>
      <point x="1154.05" y="619.52" type="line"/>
      <point x="254.976" y="1121.28" type="line"/>
      <point x="192.512" y="1014.78" type="line"/>
      <point x="934.912" y="619.52" type="line"/>
      <point x="192.512" y="221.184" type="line"/>
    </contour>
    <contour>
      <point x="1232.9" y="-102.4" type="line"/>
      <point x="1232.9" y="-3.072" type="line"/>
      <point x="169.984" y="-3.072" type="line"/>
      <point x="169.984" y="-102.4" type="line"/>
    </contour>
  </outline>
</glyph>
<glyph name="fl" format="2">
  <advance width="1048"/>
  <unicode hex="FB02"/>
  <outline>
    <contour>
      <point x="774.144" y="-20.48" type="curve" smooth="yes"/>
      <point x="805.888" y="-20.48"/>
      <point x="838.656" y="-16.384"/>
      <point x="866.304" y="-1.024" type="curve"/>
      <point x="893.952" y="119.808" type="line"/>
      <point x="870.4" y="107.52"/>
      <point x="845.824" y="101.376"/>
      <point x="818.176" y="101.376" type="curve" smooth="yes"/>
      <point x="798.623" y="101.376"/>
      <point x="785.763" y="112.835"/>
      <point x="785.763" y="129.982" type="curve" smooth="yes"/>
      <point x="785.763" y="142.27"/>
      <point x="786.432" y="159.744"/>
      <point x="789.504" y="172.032" type="curve" smooth="yes"/>
      <point x="1060.86" y="1332.22" type="line"/>
      <point x="978.944" y="1423.36"/>
      <point x="891.904" y="1468.42"/>
      <point x="768" y="1468.42" type="curve" smooth="yes"/>
      <point x="587.776" y="1468.42"/>
      <point x="415.744" y="1398.78"/>
      <point x="363.52" y="1210.37" type="curve" smooth="yes"/>
      <point x="323.584" y="1063.94" type="line"/>
      <point x="164.864" y="1063.94" type="line"/>
      <point x="138.24" y="958.32" type="line"/>
      <point x="294.912" y="958.32" type="line"/>
      <point x="76.8" y="0" type="line"/>
      <point x="208.896" y="0" type="line"/>
      <point x="427.008" y="958.32" type="line"/>
      <point x="662.528" y="958.32" type="line"/>
      <point x="687.104" y="1063.94" type="line"/>
      <point x="452.608" y="1063.94" type="line"/>
      <point x="484.352" y="1177.6" type="line" smooth="yes"/>
      <point x="523.264" y="1317.89"/>
      <point x="631.808" y="1353.73"/>
      <point x="764.928" y="1353.73" type="curve" smooth="yes"/>
      <point x="808.96" y="1353.73"/>
      <point x="912.384" y="1340.42"/>
      <point x="928.768" y="1289.22" type="curve"/>
      <point x="672.768" y="214.016" type="line" smooth="yes"/>
      <point x="664.576" y="180.224"/>
      <point x="656.384" y="135.455"/>
      <point x="656.384" y="110.592" type="curve" smooth="yes"/>
      <point x="656.384" y="24.576"/>
      <point x="684.032" y="-20.48"/>
    </contour>
  </outline>
</glyph>
<glyph name="becyr.loclSRB" format="2">
  <advance width="1054"/>
  <outline>
    <contour>
      <point x="418.854" y="-20.384" type="curve" smooth="yes"/>
      <point x="723.83" y="-20.384"/>
      <point x="950.292" y="167.229"/>
      <point x="950.292" y="503.05" type="curve" smooth="yes"/>
      <point x="950.292" y="954.798"/>
      <point x="526.336" y="963.722"/>
      <point x="526.336" y="1205.54" type="curve" smooth="yes"/>
      <point x="526.336" y="1310.69"/>
      <point x="596.223" y="1366.87"/>
      <point x="727.04" y="1366.87" type="curve" smooth="yes"/>
      <point x="840.704" y="1366.87"/>
      <point x="934.912" y="1317.89"/>
      <point x="1026.05" y="1255.42" type="curve"/>
      <point x="1080.32" y="1372.16" type="line"/>
      <point x="969.728" y="1432.58"/>
      <point x="849.92" y="1487.08"/>
      <point x="723.968" y="1487.08" type="curve" smooth="yes"/>
      <point x="519.955" y="1487.08"/>
      <point x="386" y="1377.17"/>
      <point x="386" y="1212.24" type="curve" smooth="yes"/>
      <point x="386" y="1074.42"/>
      <point x="471.597" y="978.169"/>
      <point x="525.531" y="947.016" type="curve"/>
      <point x="539.143" y="922.232" type="line"/>
      <point x="651.111" y="857.558"/>
      <point x="810.812" y="744.486"/>
      <point x="810.812" y="492.017" type="curve" smooth="yes"/>
      <point x="810.812" y="246.257"/>
      <point x="655.475" y="95.232"/>
      <point x="436.519" y="95.232" type="curve" smooth="yes"/>
      <point x="300.411" y="95.232"/>
      <point x="199.193" y="210.407"/>
      <point x="199.193" y="375.271" type="curve" smooth="yes"/>
      <point x="199.193" y="653.885"/>
      <point x="394.666" y="854.728"/>
      <point x="670.562" y="923.611" type="curve"/>
      <point x="567.974" y="997.627" type="line"/>
      <point x="284.562" y="916.089"/>
      <point x="58.8325" y="689.841"/>
      <point x="58.8325" y="394.405" type="curve" smooth="yes"/>
      <point x="58.8325" y="158.984"/>
      <point x="213.151" y="-20.384"/>
    </contour>
  </outline>
</glyph>
<glyph name="five.pnum" format="2">
  <advance width="1054"/>
  <outline>
    <contour>
      <point x="395.824" y="-20.48" type="curve" smooth="yes"/>
      <point x="710.192" y="-20.48"/>
      <point x="993.84" y="264.192"/>
      <point x="993.84" y="579.584" type="curve" smooth="yes"/>
      <point x="993.84" y="795.648"/>
      <point x="855.6" y="933.888"/>
      <point x="639.536" y="933.888" type="curve" smooth="yes"/>
      <point x="517.68" y="933.888"/>
      <point x="411.184" y="893.952"/>
      <point x="320.048" y="815.104" type="curve"/>
      <point x="524.848" y="1328.13" type="line"/>
      <point x="1114.67" y="1328.13" type="line"/>
      <point x="1142.32" y="1446.91" type="line"/>
      <point x="446" y="1446.91" type="line"/>
      <point x="157.232" y="724.992" type="line"/>
      <point x="260.656" y="655.36" type="line"/>
      <point x="343.6" y="754.688"/>
      <point x="479.792" y="819.2"/>
      <point x="606.768" y="819.2" type="curve" smooth="yes"/>
      <point x="764.464" y="819.2"/>
      <point x="856.624" y="729.088"/>
      <point x="856.624" y="573.44" type="curve" smooth="yes"/>
      <point x="856.624" y="325.632"/>
      <point x="647.728" y="98.304"/>
      <point x="419.376" y="98.304" type="curve" smooth="yes"/>
      <point x="236.08" y="98.304"/>
      <point x="155.184" y="194.56"/>
      <point x="155.184" y="411.648" type="curve"/>
      <point x="25.136" y="374.784" type="line"/>
      <point x="25.136" y="135.168"/>
      <point x="170.544" y="-20.48"/>
    </contour>
  </outline>
</glyph>
<glyph name="four.pnum" format="2">
  <advance width="1128"/>
  <outline>
    <contour>
      <point x="675.896" y="0" type="line"/>
      <point x="768.056" y="401.408" type="line"/>
      <point x="997.432" y="401.408" type="line"/>
      <point x="1023.03" y="516.096" type="line"/>
      <point x="793.656" y="516.096" type="line"/>
      <point x="1007.67" y="1446.91" type="line"/>
      <point x="879.672" y="1446.91" type="line"/>
      <point x="-16.3279" y="478.208" type="line"/>
      <point x="-33.7359" y="401.408" type="line"/>
      <point x="632.888" y="401.408" type="line"/>
      <point x="540.728" y="0" type="line"/>
    </contour>
    <contour>
      <point x="658.488" y="516.096" type="line"/>
      <point x="148.536" y="516.096" type="line"/>
      <point x="824.376" y="1238.02" type="line"/>
    </contour>
  </outline>
</glyph>
<glyph name="one.pnum" format="2">
  <advance width="681"/>
  <outline>
    <contour>
      <point x="393.568" y="0" type="line"/>
      <point x="726.368" y="1446.91" type="line"/>
      <point x="601.44" y="1446.91" type="line"/>
      <point x="576.864" y="1327.1"/>
      <point x="490.848" y="1236.99"/>
      <point x="363.872" y="1236.99" type="curve" smooth="yes"/>
      <point x="152.408" y="1236.99" type="line"/>
      <point x="126.808" y="1123.33" type="line"/>
      <point x="513.376" y="1123.33" type="line"/>
      <point x="254.304" y="0" type="line"/>
    </contour>
  </outline>
</glyph>
<glyph name="ringcomb_acutecomb" format="2">
  <anchor x="-174" y="1192" name="_top"/>
  <outline>
    <contour>
      <point x="-173.888" y="1191.94" type="curve" smooth="yes"/>
      <point x="-47.936" y="1191.94"/>
      <point x="64.704" y="1306.62"/>
      <point x="64.704" y="1431.55" type="curve" smooth="yes"/>
      <point x="64.704" y="1526.78"/>
      <point x="-10.048" y="1595.39"/>
      <point x="-104.256" y="1595.39" type="curve" smooth="yes"/>
      <point x="-228.16" y="1595.39"/>
      <point x="-343.872" y="1479.68"/>
      <point x="-343.872" y="1355.78" type="curve" smooth="yes"/>
      <point x="-343.872" y="1254.4"/>
      <point x="-272.192" y="1191.94"/>
    </contour>
    <contour>
      <point x="-165.696" y="1289.22" type="curve" smooth="yes"/>
      <point x="-217.92" y="1289.22"/>
      <point x="-243.52" y="1319.94"/>
      <point x="-243.52" y="1370.11" type="curve" smooth="yes"/>
      <point x="-243.52" y="1440.77"/>
      <point x="-183.104" y="1496.06"/>
      <point x="-113.472" y="1496.06" type="curve" smooth="yes"/>
      <point x="-68.416" y="1496.06"/>
      <point x="-30.528" y="1468.42"/>
      <point x="-30.528" y="1420.29" type="curve" smooth="yes"/>
      <point x="-30.528" y="1351.68"/>
      <point x="-98.112" y="1289.22"/>
    </contour>
    <contour>
      <point x="-25.408" y="1684.48" type="line"/>
      <point x="316.608" y="1979.39" type="line"/>
      <point x="133.312" y="1979.39" type="line"/>
      <point x="-153.408" y="1684.48" type="line"/>
    </contour>
  </outline>
</glyph>
<glyph name="tecyr.loclSRB" format="2">
  <advance width="1811"/>
  <outline>
    <component base="shacyr"/>
    <contour>
      <point x="1660.18" y="1374" type="line"/>
      <point x="564.18" y="1374" type="line"/>
      <point x="542.966" y="1252" type="line"/>
      <point x="1638.97" y="1252" type="line"/>
    </contour>
  </outline>
</glyph>
<glyph name="zero.pnum" format="2">
  <advance width="1241"/>
  <outline>
    <contour>
      <point x="493" y="-20" type="curve" smooth="yes"/>
      <point x="928" y="-20"/>
      <point x="1197" y="589"/>
      <point x="1197" y="961" type="curve" smooth="yes"/>
      <point x="1197" y="1203"/>
      <point x="1113" y="1470"/>
      <point x="817" y="1470" type="curve" smooth="yes"/>
      <point x="375" y="1470"/>
      <point x="109" y="865"/>
      <point x="109" y="487" type="curve" smooth="yes"/>
      <point x="109" y="228"/>
      <point x="187" y="-20"/>
    </contour>
    <contour>
      <point x="514" y="102" type="curve" smooth="yes"/>
      <point x="293" y="102"/>
      <point x="242" y="293"/>
      <point x="242" y="477" type="curve" smooth="yes"/>
      <point x="242" y="774"/>
      <point x="424" y="1342"/>
      <point x="790" y="1342" type="curve" smooth="yes"/>
      <point x="999" y="1342"/>
      <point x="1052" y="1149"/>
      <point x="1052" y="976" type="curve" smooth="yes"/>
      <point x="1052" y="689"/>
      <point x="871" y="102"/>
    </contour>
  </outline>
</glyph>
